<svg xmlns="http://www.w3.org/2000/svg" width="1146" height="512" viewBox="0 0 1146 512">
  <path id="photo_dark" d="M60.169-50.232H50.61v56.8H15.105V-185.5H50.61V-72.182L58.8-76.023l31.135-54.6h39.056L96.221-78.493,82.292-68.066l15.021,10.7,36.871,63.93H93.49Zm79.2-11.8q0-34.846,16.933-53.641t47.522-18.795q16.387,0,28.4,5.213a53.078,53.078,0,0,1,19.938,14.679,62.883,62.883,0,0,1,11.881,22.911,104.6,104.6,0,0,1,3.96,29.633q0,34.846-16.8,53.641T203.829,10.406q-16.387,0-28.4-5.213A54.3,54.3,0,0,1,155.351-9.486,61.738,61.738,0,0,1,143.334-32.4,104.6,104.6,0,0,1,139.373-62.03Zm36.6,0a80.253,80.253,0,0,0,1.639,16.737,46.791,46.791,0,0,0,4.916,13.445,23.779,23.779,0,0,0,8.6,8.917,24.471,24.471,0,0,0,12.7,3.155q13.929,0,20.757-10.152t6.828-32.1q0-18.932-6.282-30.593t-21.3-11.661q-13.11,0-20.484,9.878T175.971-62.03Zm160.593,3.293,4.643,21.127h1.366L346.4-59.286l23.215-71.338h38.236L350.766,7.937H329.19L269.923-130.624h41.241ZM480.5-53.524l4.916,21.4h1.639L490.6-53.8l20.757-76.826h36.6L506.443-6.88q-5.189,15.365-9.969,28.124a127.923,127.923,0,0,1-10.515,22.087,49.659,49.659,0,0,1-12.7,14.4,27.292,27.292,0,0,1-16.524,5.076q-14.2,0-22.669-4.664l6.555-28.535a21.831,21.831,0,0,0,8.194,1.646q6.282,0,12.154-5.35t8.876-19.344L412.764-130.624H455.37Zm117.44,13.993q0,9.6,2.458,13.993t7.92,4.39a37.223,37.223,0,0,0,6.418-.549,38.681,38.681,0,0,0,7.784-2.469l3.824,27.987a67.045,67.045,0,0,1-13.383,4.39,78.2,78.2,0,0,1-18.572,2.2q-15.568,0-23.761-7.271t-8.194-24.008V-185.5h35.505Zm93.406-13.993,4.916,21.4H697.9L701.449-53.8l20.757-76.826h36.6L717.289-6.88Q712.1,8.485,707.321,21.244a127.923,127.923,0,0,1-10.515,22.087,49.659,49.659,0,0,1-12.7,14.4,27.292,27.292,0,0,1-16.524,5.076q-14.2,0-22.669-4.664l6.555-28.535a21.83,21.83,0,0,0,8.194,1.646q6.282,0,12.154-5.35t8.876-19.344L623.61-130.624h42.606Zm80.023-69.143a116.428,116.428,0,0,1,25.946-7.82,166.475,166.475,0,0,1,31.409-2.881q14.2,0,23.761,3.43a36.049,36.049,0,0,1,15.158,9.74,36.357,36.357,0,0,1,7.92,15.091,77.369,77.369,0,0,1,2.321,19.755q0,12.073-.819,24.282t-.956,24.008q-.137,11.8.683,22.911a86.632,86.632,0,0,0,4.1,20.99h-28.95L846.2-12.093h-1.366A48.707,48.707,0,0,1,829.677,2.586q-9.7,6.174-24.99,6.174a48.519,48.519,0,0,1-17.206-2.881,37.224,37.224,0,0,1-13.11-8.231A37.507,37.507,0,0,1,765.9-14.974a42.392,42.392,0,0,1-3-16.326q0-12.621,5.6-21.264a40.551,40.551,0,0,1,16.114-13.993,79.77,79.77,0,0,1,25.127-7.408A177.243,177.243,0,0,1,842.377-75.2q1.912-15.365-2.185-22.087t-18.3-6.722a124.2,124.2,0,0,0-22.532,2.2,82.1,82.1,0,0,0-19.528,5.762ZM816.431-20.6q10.652,0,16.933-4.8A33.445,33.445,0,0,0,842.65-35.69V-53.524A97.226,97.226,0,0,0,826.4-53.8a59.057,59.057,0,0,0-13.792,2.469,23.163,23.163,0,0,0-9.559,5.488,12.3,12.3,0,0,0-3.551,9.054q0,7.683,4.506,11.935T816.431-20.6ZM1016.9-5.234q-8.194,6.585-22.259,11.112a97.03,97.03,0,0,1-29.906,4.527q-33.047,0-48.342-19.344T901.1-62.03q0-36.218,17.206-54.327t48.342-18.109a74.837,74.837,0,0,1,20.211,2.744,46.959,46.959,0,0,1,17.479,9.054,44.537,44.537,0,0,1,12.29,17.011q4.643,10.7,4.643,26.615a120.461,120.461,0,0,1-.681,12.347q-.681,6.585-2.042,13.719H936.876q.815,17.286,8.846,26.066t25.993,8.78a55,55,0,0,0,20.006-3.43q8.846-3.43,13.472-7Zm-50.68-100.7q-13.856,0-20.512,8.369T937.7-75.2h50.527q1.092-14.816-4.479-22.773T966.219-105.93Zm123.6,47.193,4.643,21.127h1.366l3.824-21.676,23.215-71.338H1161.1L1104.023,7.937h-21.576l-59.267-138.561h41.241ZM20.567,134.435H35.589l4.1,16.463h1.092a41.848,41.848,0,0,1,16.25-14.679,49.565,49.565,0,0,1,22.805-5.076q27.312,0,40.694,16.188t13.383,52.955a100.42,100.42,0,0,1-4.506,31.142,68.121,68.121,0,0,1-12.7,23.459A55.692,55.692,0,0,1,96.9,269.7a62.3,62.3,0,0,1-25.81,5.213,81.287,81.287,0,0,1-15.977-1.235,64.614,64.614,0,0,1-12.7-4.253V326.5H20.567Zm55.17,15.914q-13.929,0-21.986,7.271T42.417,179.708v68.046a36.439,36.439,0,0,0,11.2,5.9q6.282,2.058,16.66,2.058,18.845,0,29.906-14.13t11.061-41.568a100.643,100.643,0,0,0-1.912-20.441,44.9,44.9,0,0,0-6.145-15.64,29.49,29.49,0,0,0-10.925-10.015Q85.569,150.349,75.737,150.349ZM255.994,271.624v-78.2a126.628,126.628,0,0,0-1.229-18.795,35.91,35.91,0,0,0-4.506-13.445,21.109,21.109,0,0,0-8.876-8.094q-5.6-2.744-14.612-2.744a36.058,36.058,0,0,0-23.215,8.369,37.644,37.644,0,0,0-13.383,21.539v91.368H168.324V79.56h21.849V149.8h1.092a53.792,53.792,0,0,1,17.07-13.582q9.969-5.076,24.717-5.076a68.053,68.053,0,0,1,19.938,2.607,29.425,29.425,0,0,1,14.066,9.192q5.6,6.585,8.193,17.7t2.595,28.124v82.862Zm54.077-68.595q0-34.846,15.431-53.367t44.382-18.521q15.295,0,26.629,5.076a48.344,48.344,0,0,1,18.709,14.542,63,63,0,0,1,10.925,22.773,114.344,114.344,0,0,1,3.551,29.5q0,34.846-15.431,53.367t-44.382,18.521q-15.295,0-26.629-5.076A48.345,48.345,0,0,1,324.547,255.3a63,63,0,0,1-10.925-22.773A114.343,114.343,0,0,1,310.072,203.03Zm22.669,0a95.786,95.786,0,0,0,2.048,20.03,52.939,52.939,0,0,0,6.418,16.737,34.63,34.63,0,0,0,11.471,11.524q7.1,4.39,17.206,4.39,37.144.274,37.144-52.681a97.154,97.154,0,0,0-2.048-20.3,52.94,52.94,0,0,0-6.418-16.737A33.408,33.408,0,0,0,387.091,154.6q-7.1-4.253-17.206-4.253Q332.74,150.075,332.74,203.03Zm113.344-68.595h21.3V107.272l21.849-6.311v33.474H526.38v19.206H489.237v76q0,14.268,3.551,20.167t12.017,5.9a41.4,41.4,0,0,0,12.017-1.509q4.916-1.509,10.925-3.978l4.916,16.737a83.767,83.767,0,0,1-16.114,5.762,77.2,77.2,0,0,1-18.845,2.2q-16.66,0-23.488-9.466t-6.828-31.691V153.642h-21.3Zm99.961,68.595q0-34.846,15.431-53.367t44.382-18.521q15.295,0,26.629,5.076A48.345,48.345,0,0,1,651.2,150.761a63,63,0,0,1,10.925,22.773,114.343,114.343,0,0,1,3.551,29.5q0,34.846-15.431,53.367t-44.382,18.521q-15.295,0-26.629-5.076A48.345,48.345,0,0,1,560.52,255.3,63,63,0,0,1,549.6,232.525,114.343,114.343,0,0,1,546.045,203.03Zm22.669,0a95.784,95.784,0,0,0,2.048,20.03A52.939,52.939,0,0,0,577.18,239.8a34.63,34.63,0,0,0,11.471,11.524q7.1,4.39,17.206,4.39Q643,255.985,643,203.03a97.152,97.152,0,0,0-2.048-20.3,52.939,52.939,0,0,0-6.418-16.737A33.409,33.409,0,0,0,623.064,154.6q-7.1-4.253-17.206-4.253Q568.714,150.075,568.714,203.03Z" transform="translate(-15.105 185.5)" fill="#151515"/>
</svg>
