<svg xmlns="http://www.w3.org/2000/svg" width="1924" height="256" viewBox="0 0 1924 256">
  <path id="photo_dark_one" d="M63.052-46.044H52.882V12.511H15.105V-185.5H52.882V-68.673l8.718-3.96,33.127-56.292h41.554L101.41-75.18,86.59-64.43,102.573-53.4,141.8,12.511H98.5Zm84.271-12.164q0-35.925,18.017-55.3T215.9-132.886q17.435,0,30.221,5.375a56.394,56.394,0,0,1,21.213,15.134,64.157,64.157,0,0,1,12.641,23.62,104.707,104.707,0,0,1,4.214,30.55q0,35.925-17.871,55.3T215.9,16.471q-17.435,0-30.221-5.375A57.707,57.707,0,0,1,164.323-4.037a63.014,63.014,0,0,1-12.786-23.62A104.708,104.708,0,0,1,147.324-58.207Zm38.939,0a80.26,80.26,0,0,0,1.744,17.255,47.3,47.3,0,0,0,5.231,13.861,24.885,24.885,0,0,0,9.154,9.193A26.7,26.7,0,0,0,215.9-14.645q14.82,0,22.085-10.466t7.265-33.1q0-19.518-6.684-31.54T215.9-101.77q-13.948,0-21.794,10.183T186.263-58.207ZM357.13-54.813l4.94,21.781h1.453l4.068-22.347,24.7-73.547h40.683L372.241,13.925H349.284L286.226-128.925h43.879Zm153.141,5.375L515.5-27.374h1.744l3.778-22.347,22.085-79.2h38.939L537.877-1.35q-5.521,15.841-10.607,28.994a130.131,130.131,0,0,1-11.188,22.771,51.763,51.763,0,0,1-13.512,14.851A29.688,29.688,0,0,1,484.99,70.5q-15.111,0-24.119-4.809l6.974-29.419a23.874,23.874,0,0,0,8.718,1.7q6.684,0,12.931-5.516t9.444-19.943L438.2-128.925h45.332ZM635.225-35.012q0,9.9,2.615,14.427t8.427,4.526a40.842,40.842,0,0,0,6.829-.566,42.12,42.12,0,0,0,8.282-2.546l4.068,28.853a72.931,72.931,0,0,1-14.239,4.526,85.745,85.745,0,0,1-19.76,2.263q-16.564,0-25.281-7.5t-8.718-24.751V-185.5h37.777Zm99.382-14.427,5.231,22.064h1.744l3.778-22.347,22.085-79.2h38.939L762.213-1.35q-5.521,15.841-10.607,28.994a130.131,130.131,0,0,1-11.188,22.771,51.761,51.761,0,0,1-13.512,14.851A29.688,29.688,0,0,1,709.326,70.5q-15.111,0-24.119-4.809l6.974-29.419a23.874,23.874,0,0,0,8.718,1.7q6.684,0,12.931-5.516t9.444-19.943L662.541-128.925h45.332Zm85.143-71.284a126.832,126.832,0,0,1,27.606-8.062,182.634,182.634,0,0,1,33.418-2.97q15.111,0,25.281,3.536t16.128,10.042a37.11,37.11,0,0,1,8.427,15.558,77.413,77.413,0,0,1,2.47,20.367q0,12.446-.872,25.034t-1.017,24.751q-.145,12.164.726,23.62a86.877,86.877,0,0,0,4.359,21.64h-30.8l-6.1-19.518h-1.453A51.115,51.115,0,0,1,881.791,8.409q-10.316,6.365-26.589,6.365A53.114,53.114,0,0,1,836.9,11.8a39.8,39.8,0,0,1-13.948-8.486,38.619,38.619,0,0,1-9.008-13.012,42.511,42.511,0,0,1-3.2-16.831q0-13.012,5.957-21.923t17.145-14.427q11.188-5.516,26.734-7.638A194.569,194.569,0,0,1,895.3-71.785q2.034-15.841-2.325-22.771t-19.47-6.93a136.245,136.245,0,0,0-23.974,2.263,89.455,89.455,0,0,0-20.777,5.94ZM867.7-15.493q11.333,0,18.017-4.95a34.874,34.874,0,0,0,9.88-10.608V-49.438a106.745,106.745,0,0,0-17.29-.283,64.646,64.646,0,0,0-14.675,2.546,24.837,24.837,0,0,0-10.171,5.657,12.471,12.471,0,0,0-3.778,9.335q0,7.92,4.795,12.3T867.7-15.493ZM1080.991.348q-8.718,6.789-23.683,11.456a106.284,106.284,0,0,1-31.82,4.667q-35.161,0-51.435-19.943T957.781-58.207q0-37.339,18.307-56.009t51.435-18.67a82.017,82.017,0,0,1,21.5,2.829,50.544,50.544,0,0,1,18.6,9.335,46.014,46.014,0,0,1,13.077,17.538q4.94,11.032,4.94,27.439a120.386,120.386,0,0,1-.724,12.729q-.724,6.789-2.173,14.144h-86.9q.867,17.821,9.412,26.873t27.656,9.052a60.2,60.2,0,0,0,21.286-3.536q9.413-3.536,14.334-7.213Zm-53.923-103.814q-14.743,0-21.824,8.628T996.72-71.785h53.759q1.162-15.275-4.765-23.478T1027.068-103.467Zm131.51,48.654,4.94,21.781h1.453l4.068-22.347,24.7-73.547h40.683L1173.689,13.925h-22.957l-63.058-142.851h43.879Zm94.151-74.113h15.982l4.359,16.972h1.162a44.068,44.068,0,0,1,17.29-15.134,54.142,54.142,0,0,1,24.264-5.233q29.059,0,43.3,16.689t14.239,54.594a100.564,100.564,0,0,1-4.795,32.106,69.6,69.6,0,0,1-13.512,24.186,59.138,59.138,0,0,1-21.068,15.275,68.109,68.109,0,0,1-27.461,5.375,89.2,89.2,0,0,1-17-1.273,70.291,70.291,0,0,1-13.512-4.385V69.086H1252.73Zm58.7,16.407q-14.82,0-23.392,7.5t-12.06,22.771V-12.1a39.2,39.2,0,0,0,11.914,6.082q6.684,2.122,17.726,2.122,20.051,0,31.82-14.568t11.769-42.855a100.645,100.645,0,0,0-2.034-21.074,45.469,45.469,0,0,0-6.538-16.124,31.034,31.034,0,0,0-11.624-10.325Q1321.891-112.519,1311.429-112.519Zm191.79,125.03V-68.108a126.554,126.554,0,0,0-1.308-19.377,36.255,36.255,0,0,0-4.795-13.861,22.217,22.217,0,0,0-9.444-8.345q-5.957-2.829-15.547-2.829a39.122,39.122,0,0,0-24.7,8.628,38.663,38.663,0,0,0-14.239,22.206v94.2H1409.94V-185.5h23.247v72.415h1.162a56.971,56.971,0,0,1,18.162-14q10.607-5.233,26.3-5.233a74.581,74.581,0,0,1,21.213,2.687,31.409,31.409,0,0,1,14.965,9.476q5.957,6.789,8.718,18.245t2.761,28.994V12.511Zm57.537-70.718q0-35.925,16.418-55.019T1624.4-132.32q16.273,0,28.333,5.233a51.246,51.246,0,0,1,19.905,14.992,64.12,64.12,0,0,1,11.624,23.478,114.415,114.415,0,0,1,3.778,30.409q0,35.925-16.418,55.019T1624.4,15.906q-16.273,0-28.333-5.233A51.247,51.247,0,0,1,1576.157-4.32,64.122,64.122,0,0,1,1564.534-27.8,114.415,114.415,0,0,1,1560.756-58.207Zm24.119,0a95.8,95.8,0,0,0,2.179,20.65,53.573,53.573,0,0,0,6.829,17.255,36.287,36.287,0,0,0,12.2,11.881Q1613.644-3.9,1624.4-3.9q39.52.283,39.52-54.312a97.163,97.163,0,0,0-2.179-20.933,53.578,53.578,0,0,0-6.829-17.255,35.027,35.027,0,0,0-12.2-11.739q-7.555-4.385-18.307-4.385Q1584.875-112.8,1584.875-58.207Zm120.6-70.718h22.666v-28l23.247-6.506v34.511h39.52v19.8h-39.52v78.356q0,14.709,3.778,20.791T1767.947-3.9a45.37,45.37,0,0,0,12.786-1.556q5.231-1.556,11.624-4.1L1797.587,7.7a91.012,91.012,0,0,1-17.145,5.94,84.642,84.642,0,0,1-20.051,2.263q-17.726,0-24.991-9.759t-7.265-32.672v-82.6H1705.47Zm106.356,70.718q0-35.925,16.418-55.019t47.221-19.094q16.273,0,28.333,5.233a51.246,51.246,0,0,1,19.905,14.992,64.12,64.12,0,0,1,11.624,23.478,114.425,114.425,0,0,1,3.778,30.409q0,35.925-16.418,55.019t-47.221,19.094q-16.273,0-28.333-5.233A51.246,51.246,0,0,1,1827.228-4.32,64.12,64.12,0,0,1,1815.6-27.8,114.415,114.415,0,0,1,1811.826-58.207Zm24.119,0a95.8,95.8,0,0,0,2.179,20.65,53.573,53.573,0,0,0,6.829,17.255,36.29,36.29,0,0,0,12.2,11.881q7.555,4.526,18.307,4.526,39.521.283,39.52-54.312a97.163,97.163,0,0,0-2.179-20.933,53.576,53.576,0,0,0-6.829-17.255,35.027,35.027,0,0,0-12.2-11.739q-7.555-4.385-18.307-4.385Q1835.945-112.8,1835.945-58.207Z" transform="translate(-15.105 185.5)" fill="#fff"/>
</svg>
