<svg xmlns="http://www.w3.org/2000/svg" width="369.12" height="38.08" viewBox="0 0 369.12 38.08">
  <path id="Path_109" data-name="Path 109" d="M264.64,48.162a4.181,4.181,0,0,1-2.12-3.756,3.679,3.679,0,0,1,.88-2.617,5.171,5.171,0,0,1,2.4-1.378v-.44a2.967,2.967,0,0,1-1.84-2.867,2.882,2.882,0,0,1,1-2.37,6.566,6.566,0,0,1,2.56-1.214V33.36a6.67,6.67,0,0,1-2.859-2.528,7.077,7.077,0,0,1-1.021-3.811,7.333,7.333,0,0,1,.561-2.889,6.486,6.486,0,0,1,1.579-2.267,7.225,7.225,0,0,1,2.44-1.464,9.986,9.986,0,0,1,7.1.279v-.36a3.4,3.4,0,0,1,.56-2.007,2.1,2.1,0,0,1,1.841-.793h3.08v2.84h-3.92v1.324a6.716,6.716,0,0,1,1.741,2.307,7.154,7.154,0,0,1,.62,3.029,7.338,7.338,0,0,1-.561,2.888,6.482,6.482,0,0,1-1.579,2.266,7.181,7.181,0,0,1-2.46,1.464,9.351,9.351,0,0,1-3.2.522,10.184,10.184,0,0,1-2-.2,6.652,6.652,0,0,0-1.88.82,1.693,1.693,0,0,0-.84,1.5,1.218,1.218,0,0,0,.879,1.24,6.8,6.8,0,0,0,2.281.319h4.4q3.839,0,5.58,1.455A4.944,4.944,0,0,1,281.6,43.3a5.066,5.066,0,0,1-2.5,4.685q-2.5,1.494-7.5,1.495Q266.76,49.48,264.64,48.162Zm.88-4.562a3.069,3.069,0,0,0,1.021,2.32,4.993,4.993,0,0,0,3.46.96h2.96a8.506,8.506,0,0,0,4.16-.84,2.724,2.724,0,0,0,1.48-2.52,2.391,2.391,0,0,0-.94-1.98,5.574,5.574,0,0,0-3.34-.741h-6.88A2.923,2.923,0,0,0,265.52,43.6Zm2.68-20.175a3.7,3.7,0,0,0-1.2,3.033v1.125a3.694,3.694,0,0,0,1.2,3.033,5.823,5.823,0,0,0,6.48,0,3.694,3.694,0,0,0,1.2-3.033V26.457a3.7,3.7,0,0,0-1.2-3.033,5.823,5.823,0,0,0-6.48,0ZM101.92,49V44.4h3.96l.72-2.319L99.24,20h5.88l3.08,9.8,1.52,6.08h.24l1.56-6.08L114.6,20h5.521L112.04,44.24a7.4,7.4,0,0,1-2.26,3.6A6.587,6.587,0,0,1,105.6,49ZM68.68,49V44.4h3.96l.72-2.319L66,20H71.88l3.08,9.8,1.52,6.08h.239L78.28,29.8,81.36,20h5.52L78.8,44.24a7.4,7.4,0,0,1-2.261,3.6A6.583,6.583,0,0,1,72.36,49ZM332,39.38a8.869,8.869,0,0,1-1.72-5.781,18.876,18.876,0,0,1,.62-4.7,16.046,16.046,0,0,1,1.859-4.44,10.623,10.623,0,0,1,3.14-3.3,7.794,7.794,0,0,1,4.46-1.28,6.806,6.806,0,0,1,1.8.24,5.423,5.423,0,0,1,1.6.72,4.767,4.767,0,0,1,2,2.88h.16L348.4,11.4h3.08l-5.4,26.879H349L348.48,41h-2.76a2.7,2.7,0,0,1-2.02-.68,2.474,2.474,0,0,1-.66-1.8,5.547,5.547,0,0,1,.12-1.08l.2-.92h-.12a10.4,10.4,0,0,1-2.84,3.78,6.18,6.18,0,0,1-3.839,1.18A5.6,5.6,0,0,1,332,39.38Zm4.48-15.061a8.831,8.831,0,0,0-2.24,4.64l-.6,3a11.7,11.7,0,0,0-.2,2.04,5.655,5.655,0,0,0,.94,3.36,3.452,3.452,0,0,0,3.02,1.32,4.874,4.874,0,0,0,2.38-.56,8.616,8.616,0,0,0,1.94-1.48,9.266,9.266,0,0,0,1.64-2.2,10.19,10.19,0,0,0,.96-2.76l.84-4.2a4.684,4.684,0,0,0,.04-1.82,3.231,3.231,0,0,0-.72-1.52,3.939,3.939,0,0,0-1.52-1.06,6.033,6.033,0,0,0-2.32-.4A5.634,5.634,0,0,0,336.48,24.32ZM315.3,40.88a6.391,6.391,0,0,1-2.34-1.72,7.944,7.944,0,0,1-1.48-2.66,10.787,10.787,0,0,1-.52-3.46,18.035,18.035,0,0,1,.7-5.08,13.356,13.356,0,0,1,2.02-4.2,9.937,9.937,0,0,1,3.181-2.84,8.5,8.5,0,0,1,4.22-1.04,7.166,7.166,0,0,1,4.5,1.34,6.5,6.5,0,0,1,2.34,3.46l-2.561,1.16A4.219,4.219,0,0,0,321,22.6a5.387,5.387,0,0,0-4.02,1.568,8.392,8.392,0,0,0-2.1,4.342l-.68,3.377a9.465,9.465,0,0,0-.12.944q-.04.5-.04.865a5.564,5.564,0,0,0,1.16,3.658,4.346,4.346,0,0,0,3.56,1.408,4.827,4.827,0,0,0,2.78-.86,8.855,8.855,0,0,0,2.5-3.18l2.441,1.2a10.381,10.381,0,0,1-3.32,4.12,7.977,7.977,0,0,1-4.72,1.44A7.8,7.8,0,0,1,315.3,40.88Zm-79.2-.5a10.967,10.967,0,0,1-3.34-2.94l2.281-1.84a8.985,8.985,0,0,0,2.679,2.34,6.991,6.991,0,0,0,3.441.82,5.094,5.094,0,0,0,3.18-.88,3.2,3.2,0,0,0,.36-4.541,4.759,4.759,0,0,0-2.82-1.18l-1.641-.239a13.692,13.692,0,0,1-2.64-.62,7.315,7.315,0,0,1-2.1-1.121,4.81,4.81,0,0,1-1.4-1.74,5.68,5.68,0,0,1-.5-2.48,5.962,5.962,0,0,1,.56-2.66,5.355,5.355,0,0,1,1.54-1.9,6.728,6.728,0,0,1,2.34-1.14,10.826,10.826,0,0,1,2.92-.38,9.111,9.111,0,0,1,4.22.88,9.456,9.456,0,0,1,2.98,2.44l-2.119,1.92a6.374,6.374,0,0,0-2-1.74,6.44,6.44,0,0,0-3.32-.78,4.585,4.585,0,0,0-3.02.86,2.9,2.9,0,0,0-1.02,2.34A2.45,2.45,0,0,0,237.7,28a7.62,7.62,0,0,0,2.94,1l1.6.24a8.579,8.579,0,0,1,4.88,1.98,5.206,5.206,0,0,1,1.44,3.82,5.845,5.845,0,0,1-2.04,4.721,8.419,8.419,0,0,1-5.6,1.72A9.664,9.664,0,0,1,236.1,40.38Zm-19.4.339a8.235,8.235,0,0,1-2.921-2.18,10.016,10.016,0,0,1-1.88-3.4,14.079,14.079,0,0,1-.66-4.46,14.128,14.128,0,0,1,.66-4.44,9.976,9.976,0,0,1,1.88-3.42A8.237,8.237,0,0,1,216.7,20.64a9.259,9.259,0,0,1,3.82-.76,8.764,8.764,0,0,1,3.721.758,8.25,8.25,0,0,1,2.8,2.092A9.324,9.324,0,0,1,228.82,25.9a12.481,12.481,0,0,1,.62,4.026V31.44H214.6v.96a7.059,7.059,0,0,0,.42,2.46,5.843,5.843,0,0,0,1.2,1.98,5.479,5.479,0,0,0,1.921,1.32,6.583,6.583,0,0,0,2.579.48,6.273,6.273,0,0,0,3.42-.92,6.033,6.033,0,0,0,2.261-2.64l2.28,1.651a7.965,7.965,0,0,1-3.12,3.441,9.406,9.406,0,0,1-5.04,1.309A9.259,9.259,0,0,1,216.7,40.72Zm1.42-17.7a5.387,5.387,0,0,0-1.86,1.292,6.053,6.053,0,0,0-1.22,1.968,6.8,6.8,0,0,0-.44,2.485v.278H226V28.6a6.275,6.275,0,0,0-1.5-4.393,5.119,5.119,0,0,0-3.98-1.65A6.088,6.088,0,0,0,218.12,23.017ZM193.08,40.72a7.564,7.564,0,0,1-2.66-2.16,9.9,9.9,0,0,1-1.68-3.4,16.063,16.063,0,0,1-.58-4.48,16.063,16.063,0,0,1,.58-4.48,9.908,9.908,0,0,1,1.68-3.4,7.564,7.564,0,0,1,2.66-2.16,7.843,7.843,0,0,1,3.48-.76,7.026,7.026,0,0,1,3.7.931,5.8,5.8,0,0,1,2.34,2.871h.16V11.4h3.2V41h-3.2V37.679h-.16a6.3,6.3,0,0,1-6.04,3.8A7.843,7.843,0,0,1,193.08,40.72Zm.08-16.291a6.391,6.391,0,0,0-1.56,4.483v3.537a6.391,6.391,0,0,0,1.56,4.483,5.506,5.506,0,0,0,4.28,1.708,7.411,7.411,0,0,0,2.06-.282,5.156,5.156,0,0,0,1.7-.824,4.022,4.022,0,0,0,1.139-1.327,3.733,3.733,0,0,0,.42-1.789V26.7a3.18,3.18,0,0,0-.42-1.588,3.958,3.958,0,0,0-1.139-1.266,5.746,5.746,0,0,0-1.7-.823,6.948,6.948,0,0,0-2.06-.3A5.506,5.506,0,0,0,193.16,24.429ZM149.8,40.7a8.84,8.84,0,0,1-3.18-2.2,9.274,9.274,0,0,1-1.96-3.461A14.764,14.764,0,0,1,144,30.48a14.855,14.855,0,0,1,.64-4.5,9.569,9.569,0,0,1,1.9-3.461,8.426,8.426,0,0,1,3.1-2.219,10.669,10.669,0,0,1,4.2-.78,10.354,10.354,0,0,1,4.46.88,8.422,8.422,0,0,1,3.04,2.36,9.507,9.507,0,0,1,1.72,3.42,15.073,15.073,0,0,1,.54,4.06V32H150.12v.317a4.63,4.63,0,0,0,1.12,3.272A4.585,4.585,0,0,0,154.76,36.8a5.528,5.528,0,0,0,3-.734,11.764,11.764,0,0,0,2.16-1.765l2.96,3.69a9.336,9.336,0,0,1-3.66,2.567,13.51,13.51,0,0,1-5.14.923A11.083,11.083,0,0,1,149.8,40.7Zm1.34-15.64a4.638,4.638,0,0,0-1.02,3.14v.32h7.36v-.36a5.146,5.146,0,0,0-.86-3.1,3.071,3.071,0,0,0-2.66-1.18A3.531,3.531,0,0,0,151.14,25.06Zm-28.3,14.746a5.971,5.971,0,0,1-1.68-4.426,5.512,5.512,0,0,1,2.42-4.924,11.722,11.722,0,0,1,6.58-1.615h3.32V27.52a3.509,3.509,0,0,0-.8-2.42,3.434,3.434,0,0,0-2.68-.9,4.65,4.65,0,0,0-2.8.76,7.53,7.53,0,0,0-1.72,1.72l-3.52-3.137a9.2,9.2,0,0,1,3.22-2.956,10.971,10.971,0,0,1,5.26-1.066q4.481,0,6.72,1.96A7.193,7.193,0,0,1,139.4,27.2v9.2h1.96V41H138.08a3.722,3.722,0,0,1-2.66-1,4.589,4.589,0,0,1-1.34-2.679h-.24a4.854,4.854,0,0,1-2.12,3.1,7.3,7.3,0,0,1-4.04,1.06A6.562,6.562,0,0,1,122.84,39.805Zm4.28-5.263v.6a1.965,1.965,0,0,0,.72,1.687,3.367,3.367,0,0,0,2.04.535,4.856,4.856,0,0,0,2.54-.635,2.222,2.222,0,0,0,1.06-2.065V32.2H130.6Q127.12,32.2,127.12,34.542ZM29.14,40.72a8.254,8.254,0,0,1-3.08-2.2,10.028,10.028,0,0,1-1.94-3.48,14.357,14.357,0,0,1-.68-4.559,14.359,14.359,0,0,1,.68-4.56,9.8,9.8,0,0,1,1.94-3.46,8.362,8.362,0,0,1,3.08-2.181,10.658,10.658,0,0,1,4.14-.76,10.661,10.661,0,0,1,4.14.76A8.362,8.362,0,0,1,40.5,22.46a9.816,9.816,0,0,1,1.94,3.46,14.385,14.385,0,0,1,.68,4.56,14.383,14.383,0,0,1-.68,4.559,10.042,10.042,0,0,1-1.94,3.48,8.254,8.254,0,0,1-3.08,2.2,10.661,10.661,0,0,1-4.14.761A10.657,10.657,0,0,1,29.14,40.72Zm1.42-15.44a4.483,4.483,0,0,0-.96,3.08v4.28a4.483,4.483,0,0,0,.96,3.08,3.448,3.448,0,0,0,2.72,1.08A3.449,3.449,0,0,0,36,35.72a4.487,4.487,0,0,0,.96-3.08V28.36A4.487,4.487,0,0,0,36,25.28a3.449,3.449,0,0,0-2.72-1.08A3.448,3.448,0,0,0,30.56,25.28ZM368.44,41a2.89,2.89,0,0,1-1.86-.561,2.118,2.118,0,0,1-.7-1.759v-.36a2.2,2.2,0,0,1,.08-.481l1.921-9.56a9.285,9.285,0,0,0,.159-1.18q.041-.581.04-.94a3.939,3.939,0,0,0-.74-2.62,3.038,3.038,0,0,0-2.42-.86,5.216,5.216,0,0,0-3.8,1.64,9.452,9.452,0,0,0-1.759,2.48,10.556,10.556,0,0,0-.96,2.68L356.08,41H353l4.16-20.641h3.081L359.4,24.44h.2A8.831,8.831,0,0,1,362.18,21a6.082,6.082,0,0,1,3.74-1.12,5.014,5.014,0,0,1,4,1.52,6.192,6.192,0,0,1,1.32,4.2q0,.56-.06,1.24a12.23,12.23,0,0,1-.22,1.44l-2,10h2.92L371.36,41Zm-70.2,0V28.292q0-5.573-4.68-5.573a7.184,7.184,0,0,0-1.86.241,5.378,5.378,0,0,0-1.62.722,3.578,3.578,0,0,0-1.14,1.222,3.48,3.48,0,0,0-.419,1.744V41h-3.2V20.36h3.2v3.322h.16a6.724,6.724,0,0,1,2.139-2.772,6.047,6.047,0,0,1,3.7-1.03,6.477,6.477,0,0,1,5.061,2.06,8.386,8.386,0,0,1,1.859,5.819V41ZM254.2,41V20.36h3.2V41ZM171.88,41,165,20h5.84l2.6,8.48,1.96,7.6h.32l1.96-7.6L180.2,20h5.6l-6.88,21ZM95.76,41a5.938,5.938,0,0,1-4.46-1.48A5.945,5.945,0,0,1,89.88,35.24V11.4H95.8v25H98.44V41ZM51.48,41,44.6,20H50.44l2.6,8.48L55,36.08h.32l1.959-7.6L59.8,20h5.6L58.52,41ZM16.04,41l-4.72-8.88L8.68,35.08V41H2.76V11.4H8.68V28.88h.24L11.52,25l4.2-5h6.56l-7,8.041L23.08,41ZM254.3,15.02a1.844,1.844,0,0,1-.461-1.3V13.2a1.846,1.846,0,0,1,.461-1.3,2.5,2.5,0,0,1,3,0,1.845,1.845,0,0,1,.46,1.3v.519a1.844,1.844,0,0,1-.46,1.3,2.5,2.5,0,0,1-3,0Z" transform="translate(-2.76 -11.4)" fill="#000"/>
</svg>
