<svg xmlns="http://www.w3.org/2000/svg" width="226" height="100" viewBox="0 0 226 100">
  <path id="design_lite" d="M3.434-37h7.279v21.3h.3l3.2-4.727,5.164-6.092h8.066l-8.607,9.8L28.42-.938H19.764l-5.8-10.819L10.714-8.15V-.938H3.434ZM40.962-.353a13.215,13.215,0,0,1-5.091-.926,10.155,10.155,0,0,1-3.787-2.68A12.187,12.187,0,0,1,29.7-8.2a17.356,17.356,0,0,1-.836-5.556A17.356,17.356,0,0,1,29.7-19.31a11.929,11.929,0,0,1,2.385-4.215,10.284,10.284,0,0,1,3.787-2.656,13.215,13.215,0,0,1,5.091-.926,13.215,13.215,0,0,1,5.091.926,10.284,10.284,0,0,1,3.787,2.656,11.929,11.929,0,0,1,2.385,4.215,17.356,17.356,0,0,1,.836,5.556A17.356,17.356,0,0,1,52.225-8.2a12.187,12.187,0,0,1-2.385,4.24,10.155,10.155,0,0,1-3.787,2.68A13.215,13.215,0,0,1,40.962-.353Zm0-5.7A4.26,4.26,0,0,0,44.306-7.37a5.433,5.433,0,0,0,1.18-3.752v-5.214a5.433,5.433,0,0,0-1.18-3.752,4.26,4.26,0,0,0-3.345-1.316,4.26,4.26,0,0,0-3.345,1.316,5.433,5.433,0,0,0-1.18,3.752v5.214a5.433,5.433,0,0,0,1.18,3.752A4.26,4.26,0,0,0,40.962-6.055ZM63.34-.938l-8.46-25.585h7.181l3.2,10.331,2.41,9.259h.393l2.41-9.259,3.1-10.331h6.886L72-.938Zm36.74-25.585h6.787L96.933,3.01A9,9,0,0,1,94.154,7.4a8.149,8.149,0,0,1-5.14,1.413H84.49V3.2h4.869L90.244.378l-9.05-26.9h7.23l3.787,11.94L94.08-7.175h.3l1.918-7.407ZM117.787-.938q-3.738,0-5.484-1.8a7.2,7.2,0,0,1-1.746-5.214V-37h7.279V-6.542h3.246v5.6Zm23.166-25.585h6.787L137.8,3.01A9,9,0,0,1,135.026,7.4a8.149,8.149,0,0,1-5.14,1.413h-4.525V3.2h4.869l.885-2.827-9.05-26.9h7.23l3.787,11.94,1.869,7.407h.3l1.918-7.407ZM169.824-.938a4.6,4.6,0,0,1-3.271-1.218,5.584,5.584,0,0,1-1.648-3.265h-.3A5.915,5.915,0,0,1,162-1.644a9.029,9.029,0,0,1-4.968,1.291A8.1,8.1,0,0,1,151.085-2.4a7.276,7.276,0,0,1-2.066-5.409,6.726,6.726,0,0,1,2.976-6.019,14.478,14.478,0,0,1,8.091-1.974h4.082v-1.608a4.251,4.251,0,0,0-.984-2.948,4.249,4.249,0,0,0-3.3-1.1,5.754,5.754,0,0,0-3.443.926,9.2,9.2,0,0,0-2.115,2.1L150-22.234a11.249,11.249,0,0,1,3.959-3.582,13.653,13.653,0,0,1,6.468-1.291q5.509,0,8.263,2.388t2.754,6.969V-6.542h2.41v5.6ZM159.741-5.372a5.974,5.974,0,0,0,3.123-.78,2.726,2.726,0,0,0,1.3-2.534v-3.021h-3.541q-4.279,0-4.279,2.875V-8.1a2.41,2.41,0,0,0,.885,2.071A4.143,4.143,0,0,0,159.741-5.372ZM189.5-.353a13.74,13.74,0,0,1-5.263-.95,10.867,10.867,0,0,1-3.91-2.68,11.266,11.266,0,0,1-2.41-4.215,17.84,17.84,0,0,1-.812-5.556,17.944,17.944,0,0,1,.787-5.482,11.625,11.625,0,0,1,2.336-4.215,10.354,10.354,0,0,1,3.812-2.7,13.233,13.233,0,0,1,5.164-.95,12.832,12.832,0,0,1,5.484,1.072,10.34,10.34,0,0,1,3.738,2.875,11.544,11.544,0,0,1,2.115,4.167,18.2,18.2,0,0,1,.664,4.946V-11.9H184.628v.39a5.683,5.683,0,0,0,1.377,4.02,5.642,5.642,0,0,0,4.328,1.486,6.806,6.806,0,0,0,3.689-.9,14.473,14.473,0,0,0,2.656-2.169l3.64,4.483a11.481,11.481,0,0,1-4.5,3.119A16.78,16.78,0,0,1,189.5-.353ZM189.35-21.8a4.36,4.36,0,0,0-3.467,1.438,5.612,5.612,0,0,0-1.254,3.826v.39h9.05v-.439a6.223,6.223,0,0,0-1.057-3.777A3.792,3.792,0,0,0,189.35-21.8ZM211.384-.938l-8.46-25.585h7.181l3.2,10.331,2.41,9.259h.393l2.41-9.259,3.1-10.331H228.5L220.04-.938ZM20.452,48.575h-.2a7.746,7.746,0,0,1-7.427,4.678,9.715,9.715,0,0,1-4.279-.926A9.279,9.279,0,0,1,5.279,49.7a12.018,12.018,0,0,1-2.066-4.142A19.41,19.41,0,0,1,2.5,40.1a19.41,19.41,0,0,1,.713-5.458A12.018,12.018,0,0,1,5.279,30.5,9.279,9.279,0,0,1,8.55,27.864a9.715,9.715,0,0,1,4.279-.926,8.629,8.629,0,0,1,4.55,1.145,7.14,7.14,0,0,1,2.877,3.533h.2V16.606h3.935V52.669H20.452Zm-6.541,1.17a9.256,9.256,0,0,0,2.533-.341,6.381,6.381,0,0,0,2.09-1,4.9,4.9,0,0,0,1.4-1.608,4.468,4.468,0,0,0,.516-2.169V35.271a3.811,3.811,0,0,0-.516-1.925,4.824,4.824,0,0,0-1.4-1.535,7.106,7.106,0,0,0-2.09-1,8.679,8.679,0,0,0-2.533-.365,6.82,6.82,0,0,0-5.263,2.071A7.679,7.679,0,0,0,6.73,37.951V42.24a7.679,7.679,0,0,0,1.918,5.434A6.82,6.82,0,0,0,13.911,49.745ZM42.29,53.253a11.478,11.478,0,0,1-4.7-.926A10.123,10.123,0,0,1,34,49.672a12.157,12.157,0,0,1-2.312-4.142,16.987,16.987,0,0,1-.812-5.434,17.046,17.046,0,0,1,.812-5.409A12.122,12.122,0,0,1,34,30.519a10.123,10.123,0,0,1,3.59-2.656,11.478,11.478,0,0,1,4.7-.926,10.843,10.843,0,0,1,4.574.926,10.123,10.123,0,0,1,3.443,2.558A11.383,11.383,0,0,1,52.5,34.3a15.2,15.2,0,0,1,.762,4.922V41.07H35.011v1.17a8.532,8.532,0,0,0,.516,3A7.1,7.1,0,0,0,37,47.649a6.743,6.743,0,0,0,2.361,1.608,8.172,8.172,0,0,0,3.172.585,7.775,7.775,0,0,0,4.205-1.121A7.372,7.372,0,0,0,49.52,45.5l2.8,2a9.7,9.7,0,0,1-3.836,4.167A11.706,11.706,0,0,1,42.29,53.253Zm0-23.051a7.518,7.518,0,0,0-2.951.56,6.625,6.625,0,0,0-2.287,1.584,7.429,7.429,0,0,0-1.5,2.412,8.322,8.322,0,0,0-.541,3.046v.341H49.028V37.61a7.683,7.683,0,0,0-1.844-5.385A6.3,6.3,0,0,0,42.29,30.2ZM67.374,53.253a11.96,11.96,0,0,1-5.927-1.34,13.445,13.445,0,0,1-4.107-3.582l2.8-2.242a11.006,11.006,0,0,0,3.3,2.851,8.65,8.65,0,0,0,4.23,1,6.307,6.307,0,0,0,3.91-1.072,3.87,3.87,0,0,0,.443-5.531A5.878,5.878,0,0,0,68.554,41.9l-2.017-.292a16.957,16.957,0,0,1-3.246-.755,9.05,9.05,0,0,1-2.582-1.365,5.88,5.88,0,0,1-1.721-2.12,6.86,6.86,0,0,1-.615-3.021,7.211,7.211,0,0,1,.689-3.241,6.541,6.541,0,0,1,1.894-2.315A8.3,8.3,0,0,1,63.832,27.4a13.409,13.409,0,0,1,3.59-.463,11.293,11.293,0,0,1,5.189,1.072,11.61,11.61,0,0,1,3.664,2.973l-2.607,2.339A7.8,7.8,0,0,0,71.21,31.2a7.978,7.978,0,0,0-4.082-.95A5.673,5.673,0,0,0,63.414,31.3,3.519,3.519,0,0,0,62.16,34.15a2.975,2.975,0,0,0,1.254,2.68,9.426,9.426,0,0,0,3.615,1.218L69,38.341q4.23.634,6,2.412a6.31,6.31,0,0,1,1.771,4.654,7.092,7.092,0,0,1-2.508,5.75A10.417,10.417,0,0,1,67.374,53.253Zm18.3-31.628a2.418,2.418,0,0,1-1.844-.609,2.235,2.235,0,0,1-.566-1.584V18.8a2.235,2.235,0,0,1,.566-1.584,3.1,3.1,0,0,1,3.689,0A2.235,2.235,0,0,1,88.08,18.8v.634a2.235,2.235,0,0,1-.566,1.584A2.418,2.418,0,0,1,85.67,21.626Zm-1.967,5.9h3.935V52.669H83.7Zm33.691,27.924a6.183,6.183,0,0,1-3.074,5.726Q111.246,63,105.1,63q-5.951,0-8.558-1.608a5.091,5.091,0,0,1-2.607-4.581,4.464,4.464,0,0,1,1.082-3.192,6.373,6.373,0,0,1,2.951-1.681V51.4A3.63,3.63,0,0,1,95.7,47.893a3.518,3.518,0,0,1,1.23-2.9,8.075,8.075,0,0,1,3.148-1.486v-.195a8.176,8.176,0,0,1-3.517-3.07,8.524,8.524,0,0,1-1.254-4.63A8.821,8.821,0,0,1,96,32.1a7.878,7.878,0,0,1,1.943-2.753,8.885,8.885,0,0,1,3-1.779,12.4,12.4,0,0,1,8.73.341v-.439a4.007,4.007,0,0,1,.689-2.412,2.6,2.6,0,0,1,2.262-.95h3.787v3.411h-4.82v1.608a8.171,8.171,0,0,1,2.14,2.8,8.594,8.594,0,0,1,.762,3.679,8.821,8.821,0,0,1-.689,3.509,7.879,7.879,0,0,1-1.943,2.753,8.841,8.841,0,0,1-3.025,1.779,11.614,11.614,0,0,1-3.935.634,12.623,12.623,0,0,1-2.459-.244,8.211,8.211,0,0,0-2.312,1A2.058,2.058,0,0,0,99.1,46.869a1.486,1.486,0,0,0,1.082,1.511,8.419,8.419,0,0,0,2.8.39h5.41q4.722,0,6.861,1.779A6.026,6.026,0,0,1,117.394,55.446Zm-3.689.292a2.9,2.9,0,0,0-1.156-2.412,6.914,6.914,0,0,0-4.107-.9h-8.46a3.562,3.562,0,0,0-2.361,3.411,3.725,3.725,0,0,0,1.254,2.827q1.254,1.17,4.254,1.17h3.64a10.539,10.539,0,0,0,5.115-1.023A3.312,3.312,0,0,0,113.7,55.739Zm-8.8-14.571a6.151,6.151,0,0,0,3.984-1.194,4.453,4.453,0,0,0,1.476-3.679V34.93a4.453,4.453,0,0,0-1.476-3.679,7.244,7.244,0,0,0-7.968,0,4.453,4.453,0,0,0-1.476,3.679v1.365a4.453,4.453,0,0,0,1.476,3.679A6.151,6.151,0,0,0,104.9,41.168Zm17.067,11.5V27.522H125.9v4.094h.2A8.282,8.282,0,0,1,128.73,28.2a7.43,7.43,0,0,1,4.55-1.267,8,8,0,0,1,6.222,2.51q2.287,2.51,2.287,7.091V52.669h-3.935V37.22q0-6.774-5.755-6.774a8.915,8.915,0,0,0-2.287.292,6.681,6.681,0,0,0-1.992.877,4.358,4.358,0,0,0-1.4,1.486,4.192,4.192,0,0,0-.516,2.12V52.669Z" transform="translate(-2.5 37)" fill="#fff"/>
</svg>
